<svg width="32" height="32" viewBox="0 0 32 32" fill="none" xmlns="http://www.w3.org/2000/svg">
<path d="M20 1C20 0.447715 19.5523 0 19 0H13C12.4477 0 12 0.447715 12 1C12 1.55228 11.5523 2 11 2C10.4477 2 10 2.44772 10 3V4C10 4.55228 10.4477 5 11 5H21C21.5523 5 22 4.55228 22 4V3C22 2.44772 21.5523 2 21 2C20.4477 2 20 1.55228 20 1Z" fill="#D7DEEA"/>
<path d="M8.17071 2H7C5.34315 2 4 3.34315 4 5V29C4 30.6569 5.34314 32 7 32H25C26.6569 32 28 30.6569 28 29V5C28 3.34315 26.6569 2 25 2H23.8293C23.9398 2.31278 24 2.64936 24 3V4C24 5.65686 22.6569 7 21 7H11C9.34314 7 8 5.65685 8 4V3C8 2.64936 8.06015 2.31278 8.17071 2ZM21.7071 15.7071L15.7071 21.7071C15.5196 21.8946 15.2652 22 15 22C14.7348 22 14.4804 21.8946 14.2929 21.7071L11.2929 18.7071C10.9024 18.3166 10.9024 17.6834 11.2929 17.2929C11.6834 16.9024 12.3166 16.9024 12.7071 17.2929L15 19.5858L20.2929 14.2929C20.6834 13.9024 21.3166 13.9024 21.7071 14.2929C22.0976 14.6834 22.0976 15.3166 21.7071 15.7071Z" fill="#D7DEEA"/>
</svg>
