<svg width="24" height="24" viewBox="0 0 24 24" fill="none" xmlns="http://www.w3.org/2000/svg">
<path d="M1.5 3.75C1.5 2.50736 2.50736 1.5 3.75 1.5L8.25 1.5C9.49264 1.5 10.5 2.50736 10.5 3.75V8.25C10.5 9.49264 9.49264 10.5 8.25 10.5H3.75C2.50736 10.5 1.5 9.49264 1.5 8.25L1.5 3.75ZM3.75 3C3.33579 3 3 3.33579 3 3.75V8.25C3 8.66421 3.33579 9 3.75 9H8.25C8.66421 9 9 8.66421 9 8.25V3.75C9 3.33579 8.66421 3 8.25 3H3.75ZM13.5 3.75C13.5 2.50736 14.5074 1.5 15.75 1.5L20.25 1.5C21.4926 1.5 22.5 2.50736 22.5 3.75V8.25C22.5 9.49264 21.4926 10.5 20.25 10.5H15.75C14.5074 10.5 13.5 9.49264 13.5 8.25V3.75ZM15.75 3C15.3358 3 15 3.33579 15 3.75V8.25C15 8.66421 15.3358 9 15.75 9H20.25C20.6642 9 21 8.66421 21 8.25V3.75C21 3.33579 20.6642 3 20.25 3H15.75ZM1.5 15.75C1.5 14.5074 2.50736 13.5 3.75 13.5H8.25C9.49264 13.5 10.5 14.5074 10.5 15.75V20.25C10.5 21.4926 9.49264 22.5 8.25 22.5H3.75C2.50736 22.5 1.5 21.4926 1.5 20.25L1.5 15.75ZM3.75 15C3.33579 15 3 15.3358 3 15.75V20.25C3 20.6642 3.33579 21 3.75 21H8.25C8.66421 21 9 20.6642 9 20.25V15.75C9 15.3358 8.66421 15 8.25 15H3.75ZM13.5 15.75C13.5 14.5074 14.5074 13.5 15.75 13.5H20.25C21.4926 13.5 22.5 14.5074 22.5 15.75V20.25C22.5 21.4926 21.4926 22.5 20.25 22.5H15.75C14.5074 22.5 13.5 21.4926 13.5 20.25V15.75ZM15.75 15C15.3358 15 15 15.3358 15 15.75V20.25C15 20.6642 15.3358 21 15.75 21H20.25C20.6642 21 21 20.6642 21 20.25V15.75C21 15.3358 20.6642 15 20.25 15H15.75Z" fill="white"/>
</svg>
