<svg width="32" height="32" viewBox="0 0 32 32" fill="none" xmlns="http://www.w3.org/2000/svg">
<path d="M8 22C8 20.8954 8.89543 20 10 20C11.1046 20 12 20.8954 12 22V24C12 25.1046 11.1046 26 10 26C8.89543 26 8 25.1046 8 24V22Z" fill="#D7DEEA"/>
<path d="M20 14C20 12.8954 20.8954 12 22 12C23.1046 12 24 12.8954 24 14V24C24 25.1046 23.1046 26 22 26C20.8954 26 20 25.1046 20 24V14Z" fill="#D7DEEA"/>
<path d="M14 18C14 16.8954 14.8954 16 16 16C17.1046 16 18 16.8954 18 18V24C18 25.1046 17.1046 26 16 26C14.8954 26 14 25.1046 14 24V18Z" fill="#D7DEEA"/>
<path d="M8 3H6C3.79086 3 2 4.79086 2 7V28C2 30.2091 3.79086 32 6 32H26C28.2091 32 30 30.2091 30 28V7C30 4.79086 28.2091 3 26 3H24V5H26C27.1046 5 28 5.89543 28 7V28C28 29.1046 27.1046 30 26 30H6C4.89543 30 4 29.1046 4 28V7C4 5.89543 4.89543 5 6 5H8V3Z" fill="#D7DEEA"/>
<path d="M19 2C19.5523 2 20 2.44772 20 3V5C20 5.55229 19.5523 6 19 6H13C12.4477 6 12 5.55229 12 5V3C12 2.44772 12.4477 2 13 2H19ZM13 0C11.3431 0 10 1.34315 10 3V5C10 6.65686 11.3431 8 13 8H19C20.6569 8 22 6.65686 22 5V3C22 1.34315 20.6569 0 19 0H13Z" fill="#D7DEEA"/>
</svg>
