<svg width="32" height="32" viewBox="0 0 32 32" fill="none" xmlns="http://www.w3.org/2000/svg">
<path d="M18.3721 9.59389C20.6216 9.1786 22.3256 7.2069 22.3256 4.83721C22.3256 2.16569 20.1599 0 17.4883 0C14.8635 0 12.7269 2.09073 12.6531 4.69775H15.008C16.8659 4.69775 18.3721 6.20393 18.3721 8.06184V9.59389Z" fill="#B7BECD"/>
<path d="M9.78229 25.0698H15.008C16.8659 25.0698 18.3721 23.5637 18.3721 21.7057V11.1628H23.9382C24.7098 11.1819 25.3202 11.8223 25.3023 12.5939V21.1811C25.41 25.8116 21.7466 29.6542 17.1162 29.7675C13.8803 29.6883 11.1166 27.7878 9.78229 25.0698Z" fill="#B7BECD"/>
<path d="M31.2558 6.32564C31.2558 8.17516 29.7565 9.67448 27.9069 9.67448C26.0574 9.67448 24.5581 8.17516 24.5581 6.32564C24.5581 4.47613 26.0574 2.97681 27.9069 2.97681C29.7565 2.97681 31.2558 4.47613 31.2558 6.32564Z" fill="#B7BECD"/>
<path d="M26.7788 25.3024C26.6986 25.3024 26.6189 25.3006 26.5396 25.297C27.0595 24.022 27.333 22.6225 27.3023 21.159V12.6122C27.3101 12.0961 27.2022 11.6046 27.0024 11.1628H30.5861C31.367 11.1628 32 11.7959 32 12.5768V20.1057C32 22.9758 29.6734 25.3024 26.8034 25.3024H26.7788Z" fill="#B7BECD"/>
<path d="M1.36409 6.69775H15.008C15.7614 6.69775 16.3721 7.30848 16.3721 8.06184V21.7057C16.3721 22.4591 15.7613 23.0698 15.008 23.0698H1.36409C0.610716 23.0698 0 22.4591 0 21.7057V8.06184C0 7.30848 0.61073 6.69775 1.36409 6.69775ZM11.776 11.8907V10.45H4.59607V11.8907H7.31086V19.3177H9.04852V11.8907H11.776Z" fill="#B7BECD"/>
</svg>
