<svg width="32" height="32" viewBox="0 0 32 32" fill="none" xmlns="http://www.w3.org/2000/svg">
<path d="M19 0C19.5523 0 20 0.447716 20 1C20 1.55228 20.4477 2 21 2C21.5523 2 22 2.44772 22 3V4C22 4.55229 21.5523 5 21 5H11C10.4477 5 10 4.55229 10 4V3C10 2.44772 10.4477 2 11 2C11.5523 2 12 1.55228 12 1C12 0.447716 12.4477 0 13 0H19Z" fill="#B7BECD"/>
<path d="M6 5C6 4.44772 6.44772 4 7 4H8C8.55228 4 9 3.55229 9 3C9 2.44772 8.55228 2 8 2H7C5.34315 2 4 3.34315 4 5V29C4 30.6569 5.34314 32 7 32H25C26.6569 32 28 30.6569 28 29V5C28 3.34315 26.6569 2 25 2H24C23.4477 2 23 2.44772 23 3C23 3.55229 23.4477 4 24 4H25C25.5523 4 26 4.44772 26 5V29C26 29.5523 25.5523 30 25 30H7C6.44772 30 6 29.5523 6 29V5Z" fill="#B7BECD"/>
<path d="M19.9578 10.7127C19.8266 10.2754 19.416 9.98247 18.9598 10.0008C18.5037 10.0191 18.1179 10.3441 18.0222 10.7905L15.8384 20.9814L13.9578 14.7127C13.84 14.32 13.4945 14.039 13.086 14.0037C12.6775 13.9685 12.2889 14.1861 12.1056 14.5528L9.38197 20H9C8.44772 20 8 20.4477 8 21C8 21.5523 8.44772 22 9 22H10C10.3788 22 10.725 21.786 10.8944 21.4472L12.7667 17.7026L15.0422 25.2874C15.1734 25.7246 15.584 26.0175 16.0402 25.9992C16.4963 25.9809 16.8821 25.6559 16.9778 25.2095L19.1616 15.0186L21.0422 21.2873C21.1691 21.7103 21.5584 22 22 22H23C23.5523 22 24 21.5523 24 21C24 20.4477 23.5523 20 23 20H22.744L19.9578 10.7127Z" fill="#B7BECD"/>
</svg>
