<svg width="32" height="32" viewBox="0 0 32 32" fill="none" xmlns="http://www.w3.org/2000/svg">
<path d="M16 32C24.8366 32 32 24.8366 32 16C32 7.16345 24.8366 0 16 0C7.16345 0 0 7.16345 0 16C0 24.8366 7.16345 32 16 32ZM14 13C14 14.6569 13.1046 16 12 16C10.8954 16 9.99998 14.6569 9.99998 13C9.99998 11.3431 10.8954 10 12 10C13.1046 10 14 11.3431 14 13ZM8.56957 19.1344C9.04763 18.8579 9.65936 19.0212 9.9359 19.4993C11.1477 21.5942 13.4103 23 16 23C18.5898 23 20.8523 21.5942 22.0642 19.4993C22.3407 19.0212 22.9524 18.8579 23.4305 19.1344C23.9086 19.4109 24.0719 20.0227 23.7954 20.5007C22.2408 23.1882 19.3326 25 16 25C12.6675 25 9.75932 23.1882 8.20469 20.5007C7.92815 20.0227 8.09151 19.4109 8.56957 19.1344ZM20 16C18.8954 16 18 14.6569 18 13C18 11.3431 18.8954 10 20 10C21.1046 10 22 11.3431 22 13C22 14.6569 21.1046 16 20 16Z" fill="#D7DEEA"/>
</svg>
